<?xml version="1.0" encoding="utf-8"?>
<!-- Generator: Adobe Illustrator 23.0.3, SVG Export Plug-In . SVG Version: 6.00 Build 0)  -->
<svg version="1.1" id="Camada_1" xmlns="http://www.w3.org/2000/svg" xmlns:xlink="http://www.w3.org/1999/xlink" x="0px" y="0px"
	 viewBox="0 0 1080 264" style="enable-background:new 0 0 1080 264;" xml:space="preserve">
<style type="text/css">
	.st0{fill:#1D70B7;}
	.st1{fill:#FFFFFF;}
</style>
<g>
	<g>
		<g>
			<path class="st1" d="M282.8,174l-2.8-12.3h-15.1l-2.8,12.3h-15.2l16.3-67.3h19.1l16.3,67.3H282.8z M272.7,121.3h-0.4l-5.7,28.6
				h11.5L272.7,121.3z"/>
			<path class="st1" d="M350.3,159.5c-0.9,3.2-2.2,6.1-4,8.5c-1.8,2.4-4.2,4.3-7.1,5.7s-6.4,2.1-10.6,2.1s-7.6-0.7-10.5-2.1
				s-5.2-3.3-7-5.7s-3.1-5.2-3.9-8.5c-0.8-3.2-1.2-6.7-1.2-10.5v-42.4h15.3v41.1c0,1.9,0.1,3.7,0.3,5.3c0.2,1.6,0.6,3.1,1.2,4.2
				c0.6,1.2,1.3,2.1,2.3,2.8c0.9,0.7,2.2,1,3.7,1c1.5,0,2.8-0.3,3.7-1c0.9-0.7,1.7-1.6,2.3-2.8c0.6-1.2,1-2.6,1.2-4.2
				c0.2-1.6,0.3-3.4,0.3-5.3v-41.1h15.2v42.4C351.6,152.8,351.1,156.3,350.3,159.5z"/>
			<path class="st1" d="M387.4,119.6V174h-14.9v-54.4h-12.4v-12.9h39.6v12.9H387.4z"/>
			<path class="st1" d="M409.5,174v-67.3H442v13.4h-18v13.2h16.5v12.5H424v14.4h19.1V174H409.5z"/>
			<path class="st1" d="M484.9,174l-15.6-41h-0.3l0.4,41h-13.6v-67.3h16.7l15.5,41.5h0.3l-0.3-41.5h13.1V174H484.9z"/>
			<path class="st1" d="M538.2,119.6V174h-14.9v-54.4h-12.4v-12.9h39.6v12.9H538.2z"/>
			<path class="st1" d="M560.2,174v-67.3h15.3V174H560.2z"/>
			<path class="st1" d="M626.1,173.2c-3,1.7-6.8,2.6-11.4,2.6c-3.9,0-7.5-0.9-10.7-2.6c-3.2-1.7-5.9-4.2-8.2-7.3
				c-2.3-3.1-4.1-6.9-5.3-11.2c-1.3-4.3-1.9-9.1-1.9-14.3c0-5.3,0.6-10.1,1.9-14.4c1.3-4.4,3-8.1,5.3-11.2c2.3-3.1,5-5.5,8.2-7.2
				c3.2-1.7,6.8-2.6,10.7-2.6c4.5,0,8.3,0.8,11.3,2.4c3,1.6,5.4,3.6,7.3,6l-8.2,11c-1.1-1.5-2.4-2.7-3.8-3.6
				c-1.4-0.9-3.2-1.3-5.4-1.3c-2,0-3.8,0.5-5.3,1.6c-1.5,1.1-2.8,2.6-3.8,4.4c-1,1.9-1.8,4.1-2.3,6.7c-0.5,2.6-0.8,5.3-0.8,8.2
				s0.3,5.6,0.8,8.2c0.5,2.5,1.3,4.8,2.3,6.7c1,1.9,2.3,3.4,3.9,4.5c1.5,1.1,3.3,1.6,5.3,1.6c2,0,3.8-0.5,5.3-1.5
				c1.5-1,2.7-2.2,3.6-3.6l8.5,10.6C631.5,169.2,629.1,171.4,626.1,173.2z"/>
			<path class="st1" d="M672.5,174l-2.8-12.3h-15.1l-2.8,12.3h-15.2l16.3-67.3h19.1l16.3,67.3H672.5z M662.4,121.3H662l-5.7,28.6
				h11.5L662.4,121.3z"/>
			<path class="st1" d="M733,172.7c-2.6,1.6-6,2.6-10,2.9l-3.1,4.1c0.4-0.1,0.7-0.2,1.1-0.2s0.7,0,1.1,0c1,0,1.9,0.1,2.9,0.3
				c1,0.2,1.9,0.6,2.7,1.2c0.8,0.6,1.5,1.3,2,2.3s0.8,2.2,0.8,3.8c0,1.8-0.4,3.4-1.3,4.6c-0.9,1.2-1.9,2.2-3.2,2.9
				c-1.3,0.7-2.7,1.2-4.2,1.4c-1.5,0.3-2.9,0.4-4.2,0.4c-1.6,0-3.4-0.2-5.4-0.5c-1.9-0.3-3.6-0.9-5.1-1.6l2.3-5.9
				c1.1,0.5,2.3,0.9,3.7,1.2c1.4,0.3,2.6,0.4,3.7,0.4c1.1,0,2.1-0.2,3.1-0.6c1-0.4,1.5-1.2,1.5-2.4c0-1-0.4-1.7-1.3-2
				c-0.9-0.3-1.8-0.5-2.7-0.5c-0.6,0-1.3,0.1-2.1,0.2c-0.8,0.2-1.5,0.4-2,0.6l-2.9-2.7l5.3-7.5c-3.2-0.8-6-2.1-8.6-4.1
				c-2.5-2-4.7-4.5-6.5-7.5c-1.8-3-3.2-6.5-4.2-10.4c-1-3.9-1.5-8.2-1.5-12.7c0-5.3,0.6-10.1,1.9-14.4c1.3-4.4,3-8.1,5.3-11.2
				c2.3-3.1,5-5.5,8.2-7.2c3.2-1.7,6.8-2.6,10.7-2.6c4.5,0,8.3,0.8,11.3,2.4c3,1.6,5.4,3.6,7.3,6l-8.2,11c-1.1-1.5-2.4-2.7-3.9-3.6
				c-1.4-0.9-3.2-1.3-5.4-1.3c-2,0-3.8,0.5-5.3,1.6c-1.5,1.1-2.8,2.6-3.8,4.4c-1,1.9-1.8,4.1-2.3,6.7c-0.5,2.6-0.8,5.3-0.8,8.2
				s0.3,5.6,0.8,8.2c0.5,2.5,1.3,4.8,2.3,6.7c1,1.9,2.3,3.4,3.9,4.5c1.5,1.1,3.3,1.6,5.3,1.6c2,0,3.8-0.5,5.3-1.5
				c1.5-1,2.7-2.2,3.6-3.6l8.5,10.6C737.8,169,735.6,171.1,733,172.7z"/>
			<path class="st1" d="M778.7,174l-2.8-12.3h-15.1L758,174h-15.2l16.3-67.3h19.1l16.3,67.3H778.7z M783.3,88.8
				c-0.1,3.7-0.9,6.6-2.4,8.7c-1.5,2.2-3.5,3.2-6,3.2c-2,0-4.2-0.7-6.6-2.2c-1.4-0.9-2.4-1.5-3.1-1.7c-0.7-0.3-1.4-0.4-2.2-0.4
				c-1.8,0-2.8,1.4-3.1,4.2h-5.5c0.2-3.5,1-6.4,2.5-8.6c1.5-2.2,3.5-3.4,6-3.4c1.2,0,2.3,0.2,3.3,0.6c1,0.4,2.1,1,3.4,1.7
				c1.4,0.8,2.4,1.4,3.1,1.7c0.7,0.3,1.5,0.4,2.3,0.4c1,0,1.6-0.3,2.1-1c0.4-0.7,0.8-1.8,1-3.3H783.3z M768.6,121.3h-0.4l-5.7,28.6
				H774L768.6,121.3z"/>
			<path class="st1" d="M852.6,140.1c0,5.3-0.6,10.2-1.8,14.6c-1.2,4.4-2.9,8.2-5.1,11.3c-2.2,3.1-4.9,5.5-8.1,7.2
				c-3.2,1.7-6.8,2.6-10.8,2.6c-4,0-7.6-0.9-10.8-2.6c-3.2-1.7-5.9-4.1-8.1-7.2c-2.2-3.1-3.9-6.9-5.1-11.3
				c-1.2-4.4-1.8-9.3-1.8-14.6c0-5.3,0.6-10.2,1.8-14.5c1.2-4.3,2.9-8,5.1-11.1c2.2-3.1,4.9-5.4,8.1-7.1c3.2-1.7,6.8-2.5,10.9-2.5
				c4,0,7.6,0.8,10.8,2.5c3.2,1.7,5.9,4.1,8.1,7.1c2.2,3.1,3.9,6.8,5.1,11.1S852.6,134.8,852.6,140.1z M837,140.1
				c0-2.9-0.2-5.6-0.7-8.1c-0.4-2.5-1.1-4.7-1.9-6.5c-0.9-1.8-1.9-3.3-3.2-4.3c-1.3-1-2.8-1.6-4.5-1.6c-1.7,0-3.2,0.5-4.5,1.6
				c-1.3,1-2.4,2.5-3.2,4.3c-0.9,1.8-1.5,4-1.9,6.5c-0.4,2.5-0.6,5.2-0.6,8.1c0,2.9,0.2,5.6,0.6,8.2c0.4,2.5,1,4.7,1.9,6.6
				c0.9,1.8,1.9,3.3,3.2,4.4c1.3,1.1,2.8,1.6,4.5,1.6c1.7,0,3.2-0.5,4.5-1.6c1.3-1.1,2.3-2.5,3.2-4.4c0.9-1.8,1.5-4,1.9-6.6
				C836.8,145.8,837,143,837,140.1z"/>
			<path class="st1" d="M876,166.3c0,2.4-0.8,4.4-2.3,6.1c-1.5,1.6-3.5,2.5-5.8,2.5c-2.4,0-4.4-0.8-5.8-2.5
				c-1.5-1.6-2.2-3.7-2.2-6.1c0-2.3,0.7-4.4,2.2-6.1s3.4-2.6,5.8-2.6c2.3,0,4.3,0.9,5.8,2.6C875.2,161.9,876,163.9,876,166.3z"/>
			<path class="st1" d="M925.5,174c-3,1-6.6,1.5-10.7,1.5c-4.2,0-8-0.9-11.4-2.6s-6.1-4.1-8.5-7.2c-2.3-3.1-4.1-6.8-5.3-11.1
				s-1.9-9.1-1.9-14.4s0.6-10.1,1.9-14.4s3-8.1,5.3-11.2c2.3-3.1,5-5.6,8.2-7.3c3.2-1.7,6.8-2.6,10.7-2.6c4.6,0,8.4,0.8,11.5,2.3
				c3.1,1.6,5.5,3.5,7.3,5.8l-8.3,11.1c-2.3-3.2-5.4-4.8-9.4-4.8c-2.1,0-3.9,0.6-5.4,1.7c-1.5,1.1-2.8,2.6-3.8,4.5
				c-1,1.9-1.8,4.1-2.2,6.7c-0.5,2.5-0.7,5.2-0.7,8.1c0,2.9,0.2,5.5,0.7,8.1c0.4,2.5,1.2,4.8,2.1,6.7c1,1.9,2.2,3.4,3.7,4.6
				c1.5,1.1,3.3,1.7,5.4,1.7c2.3,0,4.1-0.5,5.4-1.4v-12.5h-7.2v-13.2h20.5V170C931.2,171.6,928.6,172.9,925.5,174z"/>
			<path class="st1" d="M996.5,140.1c0,5.3-0.6,10.2-1.8,14.6c-1.2,4.4-2.9,8.2-5.1,11.3c-2.2,3.1-4.9,5.5-8.1,7.2
				c-3.2,1.7-6.8,2.6-10.8,2.6c-4,0-7.6-0.9-10.8-2.6c-3.2-1.7-5.9-4.1-8.1-7.2c-2.2-3.1-3.9-6.9-5.1-11.3
				c-1.2-4.4-1.8-9.3-1.8-14.6c0-5.3,0.6-10.2,1.8-14.5c1.2-4.3,2.9-8,5.1-11.1c2.2-3.1,4.9-5.4,8.1-7.1c3.2-1.7,6.8-2.5,10.9-2.5
				c4,0,7.6,0.8,10.8,2.5c3.2,1.7,5.9,4.1,8.1,7.1c2.2,3.1,3.9,6.8,5.1,11.1C995.9,130,996.5,134.8,996.5,140.1z M980.9,140.1
				c0-2.9-0.2-5.6-0.7-8.1c-0.4-2.5-1.1-4.7-1.9-6.5c-0.9-1.8-1.9-3.3-3.2-4.3c-1.3-1-2.8-1.6-4.5-1.6c-1.7,0-3.2,0.5-4.5,1.6
				c-1.3,1-2.4,2.5-3.2,4.3c-0.9,1.8-1.5,4-1.9,6.5c-0.4,2.5-0.6,5.2-0.6,8.1c0,2.9,0.2,5.6,0.6,8.2c0.4,2.5,1,4.7,1.9,6.6
				c0.9,1.8,1.9,3.3,3.2,4.4c1.3,1.1,2.8,1.6,4.5,1.6c1.7,0,3.2-0.5,4.5-1.6c1.3-1.1,2.3-2.5,3.2-4.4c0.9-1.8,1.5-4,1.9-6.6
				S980.9,143,980.9,140.1z"/>
			<path class="st1" d="M1038.5,174h-19.3l-16.3-67.3h17.2l9.1,49.2h0.2l9-49.2h16.5L1038.5,174z"/>
		</g>
	</g>
	<g>
		<g>
			<g>
				<g>
					<path class="st1" d="M157.9,83.8v17.9c0,6.8,5.5,12.3,12.3,12.3c6.8,0,12.3-5.5,12.3-12.3V83.8H157.9z"/>
				</g>
				<g>
					<path class="st1" d="M157.9,121.3v17.9c0,6.8,5.5,12.3,12.3,12.3c6.8,0,12.3-5.5,12.3-12.3v-17.9H157.9z"/>
				</g>
				<g>
					<path class="st1" d="M188.9,121.3v17.9c0,6.8,5.5,12.3,12.3,12.3c6.8,0,12.3-5.5,12.3-12.3v-17.9H188.9z"/>
				</g>
				<g>
					<path class="st1" d="M127,121.3v17.9c0,6.8,5.5,12.3,12.3,12.3c6.8,0,12.3-5.5,12.3-12.3v-17.9H127z"/>
				</g>
				<g>
					<path class="st1" d="M157.9,158.8v17.8c0,6.8,5.5,12.3,12.3,12.3c6.8,0,12.3-5.5,12.3-12.3v-17.8H157.9z"/>
				</g>
			</g>
		</g>
		<path class="st1" d="M133.4,23.5v43.3c0,0-69.1-1.2-69.1,66.3c0,71,69.1,69.1,69.1,69.1v43.3c0,0-38.9,4.8-77.8-33
			c-19.3-18.7-33.2-47.2-33.7-76.2c-0.5-29.4,12.6-59.4,30.5-77.4C88.1,23,133.4,23.5,133.4,23.5"/>
	</g>
</g>
</svg>
